<svg width="720" height="470" version="1.1" viewBox="0 0 190.5 124.35" xmlns="http://www.w3.org/2000/svg">
 <g transform="matrix(.26458 0 0 .26458 -63.5 -96.574)">
  <polygon points="766.51 684.53 953.78 684.53 953.78 631.44 830.8 631.44 830.8 381.34 766.51 381.34"/>
  <path d="m646.3 525.35c0 16.32 1.7 83.44 1.25 82.66l-131.28-227.01h-88v185.73q0 35.25-14.2 51.74t-45.77 16.53q-32.57 0-46.66-16.38t-14.11-51.43v-185.66h-64.08v195.36q0 52.05 32.35 82t90.84 30q38.78 0 67.19-13.48t43.45-38.78q15-25.29 15-58.89v-119l130.17 226.26h81.71v-303.16h-57.86z"/>
  <path d="m930.45 433.83h-43.05v24h6.86v-4.1h36.19zm-6.86 14h-29.33v-8.1h29.33z"/>
  <path d="m939.5 465.54q11 0 11-11.71v-32.38h-83.19v44.67h7.24v-38.58h68.76v25.15q0 5.81-5.81 5.81-4.66 0-13.43-0.67c0.64 2.86 1.14 5.36 1.52 7.52q7.73 0.2 13.91 0.19z"/>
  <path d="m939.79 417.64v-23.24h-61.79v23.14h7.24v-3h47.34v3.05zm-54.58-8.95v-8.38h47.34v8.38z"/>
  <path d="m955.41 381.83h-41.67q-2.58-5.28-5.29-10l-7.14 2.86q1.91 3.09 4 7.14h-43.62v6.28h93.72z"/>
  <path d="m879.78 588.5 6.77-1.43q-1.44-7.62-3.43-17.62l-6 1q1.71 9.09 2.66 18.05z"/>
  <path d="m892.93 564.5 6.28-2.57q-2.19-8.1-6.38-20l-6.28 2.1q1.71 4.66 3.23 9.62-9.33 1.62-17.33 2.48a189.84 189.84 0 0 0 24-34.58l-6.57-3.33q-4.1 7.81-8.1 14.48l-11.71 0.57a300.24 300.24 0 0 0 15.14-27.62l-6.76-2.65q-8.76 21-16.29 30.95l1.53 6.2q3.42-0.48 14-1a108 108 0 0 1-15 18.28l1.52 6.86q5.81-1.14 27.43-4.19c0.49 1.44 0.91 2.9 1.29 4.4z"/>
  <path d="m873.4 570.31-6.4-1.15a99.55 99.55 0 0 1-5.81 21.43l6.67 1.81a125.18 125.18 0 0 0 5.54-22.09z"/>
  <path d="m937.88 575.35q10.38-13.8 14.19-32.85v-7h-15.14l9.07-19.19v-7.15h-45.93v6.76h8.19q0.19 31.44-3.43 46a66 66 0 0 1-6.38 17q-2.67-6.39-5.71-12.19l-5.43 2.19a132.93 132.93 0 0 1 5.33 13l5.53-2.58a76.45 76.45 0 0 1-8.29 12 60.12 60.12 0 0 1 5.9 5.34q12-16.1 15.62-32.57a128.12 128.12 0 0 0 2.6-18.38 95.32 95.32 0 0 0 14.47 29.62 72.44 72.44 0 0 1-21.14 15.34 41.37 41.37 0 0 1 5.14 6.09 78.5 78.5 0 0 0 20.67-15.71 84.75 84.75 0 0 0 18.07 14.93 46.28 46.28 0 0 1 5.34-6.67 64.62 64.62 0 0 1-18.67-13.98zm-4.67-5.71q-11.81-15.72-18.38-40.57 0.2-6.2 0.1-13.15h23.62l-9.15 19.34v7h15.72a70.5 70.5 0 0 1-11.91 27.38z"/>
  <path d="m377 803.38a13.59 13.59 0 0 0-4.41-1.73v-0.33a8.44 8.44 0 0 0 4.08-1.86 9.18 9.18 0 0 0 2.56-3.67 13.71 13.71 0 0 0 0.9-5c0-4.59-1.66-7.79-5-9.63s-8.25-2.75-14.75-2.76h-15.2l-0.08 48.82h18.27a24.63 24.63 0 0 0 9.57-1.67 13.71 13.71 0 0 0 6.2-4.85 13.12 13.12 0 0 0 2.18-7.61 13.5 13.5 0 0 0-1.17-6.16 8.75 8.75 0 0 0-3.15-3.55zm-21.48-16.51h5.48q4.44 0 6.5 1.23a4.32 4.32 0 0 1 2 4 5.08 5.08 0 0 1-1.74 4.19q-1.74 1.41-6.25 1.41h-6zm13.21 30c-1.23 1.2-3.4 1.79-6.52 1.79h-6.74v-12.73h6.41a14.38 14.38 0 0 1 5.19 0.78 5.29 5.29 0 0 1 2.69 2.14 6.23 6.23 0 0 1 0.79 3.18 6.5 6.5 0 0 1-1.8 4.85z"/>
  <path d="m433.91 803.23a13.43 13.43 0 0 0 3.35-4.24 12.85 12.85 0 0 0 1.28-5.84 14.86 14.86 0 0 0-2.09-8.19 12.54 12.54 0 0 0-6.43-4.85 32 32 0 0 0-11-1.62h-14.23l-0.08 48.83h10.35v-18.74h5.51l11.63 18.75h11.49l-14.33-21.29a20.25 20.25 0 0 0 4.55-2.81zm-8.06-4.78c-1.48 1.15-3.94 1.72-7.36 1.71h-3.34v-13.2h3.14q5 0 7.39 1.48c1.59 1 2.39 2.63 2.38 4.95a6 6 0 0 1-2.21 5.06z"/>
  <path d="m474.75 778.38-17.32 49h11.16l3.56-11.61h17.8l3.52 11.63h11.15l-17.22-49zm0 28.72 3.52-11.35c0.16-0.51 0.41-1.37 0.77-2.57s0.74-2.47 1.13-3.82 0.7-2.48 0.92-3.39c0.22 0.92 0.52 2 0.88 3.23s0.73 2.45 1.1 3.64 0.66 2.16 0.88 2.92l3.52 11.36z"/>
  <path d="m558.48 801.83c0 1.49 0.09 3 0.14 4.47l0.18 4.48c0.06 1.49 0.12 3 0.16 4.51h-0.23l-21.15-36.6h-13.06l-0.08 48.83h9.25v-23c-0.06-1.56-0.13-3.12-0.19-4.66s-0.13-3.1-0.19-4.66-0.14-3.11-0.23-4.64h0.3l21.18 37h13.16l0.08-48.82h-9.32z"/>
  <path d="m622.45 781.55a30.41 30.41 0 0 0-13.32-2.75h-15.33l-0.08 48.82h13.83a33.88 33.88 0 0 0 14.4-2.76 19.94 19.94 0 0 0 9.14-8.3q3.17-5.52 3.18-13.77a25.84 25.84 0 0 0-3.08-13.18 19.94 19.94 0 0 0-8.74-8.06zm-2.64 33.5q-3.7 4-11.28 4h-4.44v-31.79h5.51a15.8 15.8 0 0 1 7.63 1.68 10.7 10.7 0 0 1 4.67 5.17 21.73 21.73 0 0 1 1.57 8.9q0.04 7.99-3.66 12.04z"/>
  <polygon points="668.41 806.59 684.94 806.61 684.96 798.13 668.43 798.11 668.45 787.38 686.21 787.41 686.23 778.93 658.11 778.88 658.03 827.71 686.14 827.75 686.16 819.21 668.39 819.18"/>
  <path d="m738.74 781.74a30.42 30.42 0 0 0-13.32-2.74h-15.33l-0.09 48.79h13.82a33.88 33.88 0 0 0 14.4-2.77 19.92 19.92 0 0 0 9.15-8.3q3.17-5.52 3.18-13.77a25.74 25.74 0 0 0-3.09-13.18 19.87 19.87 0 0 0-8.72-8.03zm-2.65 33.51q-3.69 4-11.27 4h-4.45l0.06-31.79h5.51a16.06 16.06 0 0 1 7.63 1.68 10.68 10.68 0 0 1 4.66 5.17 21.6 21.6 0 0 1 1.57 8.9q-0.01 8-3.71 12.04z"/>
  <polygon points="835.93 819.46 816.12 819.42 816.19 779.15 805.84 779.13 805.76 827.95 835.91 828"/>
  <path d="m869.24 779-17.31 49h11.15l3.56-11.62h17.8l3.56 11.71h11.15l-17.25-49.03zm0 28.71 3.52-11.34c0.16-0.52 0.42-1.37 0.78-2.57s0.73-2.48 1.12-3.83 0.7-2.47 0.93-3.38c0.22 0.91 0.51 2 0.88 3.22s0.73 2.45 1.09 3.64 0.66 2.17 0.88 2.93l3.56 11.4z"/>
  <path d="m950.83 804.33a13.39 13.39 0 0 0-4.4-1.72v-0.34a8.43 8.43 0 0 0 4.08-1.86 9.38 9.38 0 0 0 2.56-3.67 13.51 13.51 0 0 0 0.89-5q0-6.87-5-9.62t-14.76-2.77h-15.19l-0.08 48.82h18.26a24.56 24.56 0 0 0 9.57-1.67 13.62 13.62 0 0 0 6.21-4.85 13.12 13.12 0 0 0 2.18-7.61 13.62 13.62 0 0 0-1.18-6.16 8.61 8.61 0 0 0-3.14-3.55zm-21.47-16.51h5.44q4.44 0 6.49 1.23a4.3 4.3 0 0 1 2.05 4 5.11 5.11 0 0 1-1.74 4.19c-1.16 1-3.25 1.42-6.25 1.41h-6zm13.2 30q-1.83 1.8-6.51 1.79h-6.75v-12.72h6.42a14.19 14.19 0 0 1 5.19 0.77 5.32 5.32 0 0 1 2.68 2.14 6.26 6.26 0 0 1 0.8 3.18 6.45 6.45 0 0 1-1.83 4.85z"/>
  <path d="m308.78 801.35c0 2.61 0.28 13.34 0.2 13.22l-21-36.31h-14.2v29.74c-0.13 3.76-0.89 6.52-2.4 8.28s-4 2.64-7.32 2.64-6-0.88-7.46-2.63-2.26-4.48-1.82-8.22v-28.8h-11v30.25q0 8.06 5.2 12.7t14.6 4.64a25.63 25.63 0 0 0 10.8-2.09 15.52 15.52 0 0 0 7-6 17 17 0 0 0 2.41-9.12v-18.44l20.92 35h13.08v-48h-9z"/>
 </g>
</svg>
