<svg width="720" height="315" version="1.1" viewBox="0 0 190.5 83.344" xmlns="http://www.w3.org/2000/svg">
 <g transform="translate(0 -2.6458)">
  <polygon transform="matrix(.26458 0 0 .26458 -63.5 -96.574)" points="830.8 631.44 830.8 381.34 766.51 381.34 766.51 684.53 953.78 684.53 953.78 631.44"/>
  <g stroke-width=".26458">
   <path d="m107.5 42.425c0 4.318 0.44979 22.077 0.33073 21.87l-34.735-60.063h-23.283v49.141q0 9.3266-3.7571 13.69-3.7571 4.363-12.11 4.3736-8.6175 0-12.345-4.3339t-3.7333-13.608v-49.123h-16.954v51.689q0 13.772 8.5593 21.696 8.5593 7.9243 24.035 7.9375 10.261 0 17.777-3.5666t11.496-10.261q3.9688-6.6913 3.9688-15.581v-31.485l34.441 59.865h21.619v-80.211h-15.309z"/>
   <path d="m182.68 18.21h-11.39v6.35h1.815v-1.0848h9.5753zm-1.815 3.7042h-7.7602v-2.1431h7.7602z"/>
   <path d="m185.08 26.6q2.9104 0 2.9104-3.0983v-8.5672h-22.011v11.819h1.9156v-10.208h18.193v6.6543q0 1.5372-1.5372 1.5372-1.233 0-3.5534-0.17727c0.16933 0.75671 0.30162 1.4182 0.40217 1.9897q2.0452 0.05292 3.6804 0.05027z"/>
   <path d="m185.15 13.927v-6.1489h-16.349v6.1225h1.9156v-0.79375h12.525v0.80698zm-14.441-2.368v-2.2172h12.525v2.2172z"/>
   <path d="m189.29 4.4518h-11.025q-0.68262-1.397-1.3996-2.6458l-1.8891 0.75671q0.50536 0.81756 1.0583 1.8891h-11.541v1.6616h24.797z"/>
   <path d="m169.28 59.133 1.7912-0.37835q-0.381-2.0161-0.90752-4.662l-1.5875 0.26458q0.45244 2.4051 0.70379 4.7757z"/>
   <path d="m172.75 52.783 1.6616-0.67998q-0.57944-2.1431-1.688-5.2917l-1.6616 0.55562q0.45244 1.233 0.85461 2.5453-2.4686 0.42862-4.5852 0.65617a50.228 50.228 0 0 0 6.35-9.1493l-1.7383-0.88106q-1.0848 2.0664-2.1431 3.8312l-3.0983 0.15081a79.438 79.438 0 0 0 4.0058-7.3078l-1.7886-0.70115q-2.3178 5.5562-4.3101 8.1889l0.40481 1.6404q0.90487-0.127 3.7042-0.26458a28.575 28.575 0 0 1-3.9688 4.8366l0.40217 1.815q1.5372-0.30162 7.2575-1.1086c0.12965 0.381 0.24077 0.76729 0.34131 1.1642z"/>
   <path d="m167.59 54.32-1.6933-0.30427a26.339 26.339 0 0 1-1.5372 5.67l1.7648 0.4789a33.121 33.121 0 0 0 1.4658-5.8446z"/>
   <path d="m184.65 55.654q2.7464-3.6512 3.7544-8.6916v-1.8521h-4.0058l2.3998-5.0774v-1.8918h-12.152v1.7886h2.1669q0.0503 8.3185-0.90752 12.171a17.462 17.462 0 0 1-1.688 4.4979q-0.70643-1.6907-1.5108-3.2253l-1.4367 0.57944a35.171 35.171 0 0 1 1.4102 3.4396l1.4631-0.68262a20.227 20.227 0 0 1-2.1934 3.175 15.907 15.907 0 0 1 1.561 1.4129q3.175-4.2598 4.1328-8.6175a33.898 33.898 0 0 0 0.68792-4.863 25.22 25.22 0 0 0 3.8285 7.837 19.166 19.166 0 0 1-5.5933 4.0587 10.946 10.946 0 0 1 1.36 1.6113 20.77 20.77 0 0 0 5.4689-4.1566 22.423 22.423 0 0 0 4.781 3.9502 12.245 12.245 0 0 1 1.4129-1.7648 17.097 17.097 0 0 1-4.9398-3.6989zm-1.2356-1.5108q-3.1247-4.1592-4.863-10.734 0.0529-1.6404 0.0265-3.4793h6.2495l-2.4209 5.117v1.8521h4.1592a18.653 18.653 0 0 1-3.1512 7.2443z"/>
  </g>
 </g>
</svg>
