<svg width="720" height="60" version="1.1" viewBox="0 0 190.5 15.875" xmlns="http://www.w3.org/2000/svg">
 <g transform="translate(0 -108.19)">
  <g stroke-width=".26458">
   <path d="m36.248 115.99a3.5957 3.5957 0 0 0-1.1668-0.45773v-0.0873a2.2331 2.2331 0 0 0 1.0795-0.49212 2.4289 2.4289 0 0 0 0.67733-0.97102 3.6274 3.6274 0 0 0 0.23812-1.3229c0-1.2144-0.43921-2.0611-1.3229-2.5479-0.88371-0.48683-2.1828-0.7276-3.9026-0.73025h-4.0217l-0.02117 12.917h4.8339a6.5167 6.5167 0 0 0 2.5321-0.44185 3.6274 3.6274 0 0 0 1.6404-1.2832 3.4713 3.4713 0 0 0 0.57679-2.0135 3.5719 3.5719 0 0 0-0.30956-1.6298 2.3151 2.3151 0 0 0-0.83344-0.93927zm-5.6832-4.3683h1.4499q1.1748 0 1.7198 0.32544a1.143 1.143 0 0 1 0.52917 1.0583 1.3441 1.3441 0 0 1-0.46038 1.1086q-0.46038 0.37306-1.6536 0.37306h-1.5875zm3.4951 7.9375c-0.32544 0.3175-0.89958 0.47361-1.7251 0.47361h-1.7833v-3.3682h1.696a3.8047 3.8047 0 0 1 1.3732 0.20638 1.3996 1.3996 0 0 1 0.71173 0.56621 1.6484 1.6484 0 0 1 0.20902 0.84137 1.7198 1.7198 0 0 1-0.47625 1.2832z"/>
   <path d="m51.305 115.95a3.5534 3.5534 0 0 0 0.88635-1.1218 3.3999 3.3999 0 0 0 0.33867-1.5452 3.9317 3.9317 0 0 0-0.55298-2.1669 3.3179 3.3179 0 0 0-1.7013-1.2832 8.4667 8.4667 0 0 0-2.9104-0.42862h-3.765l-0.02117 12.92h2.7384v-4.9583h1.4579l3.0771 4.9609h3.0401l-3.7915-5.633a5.3578 5.3578 0 0 0 1.2039-0.74348zm-2.1325-1.2647c-0.39158 0.30427-1.0425 0.45508-1.9473 0.45244h-0.88371v-3.4925h0.83079q1.3229 0 1.9553 0.39158c0.42069 0.26458 0.63235 0.69585 0.62971 1.3097a1.5875 1.5875 0 0 1-0.58473 1.3388z"/>
   <path d="m62.111 109.37-4.5826 12.965h2.9528l0.94192-3.0718h4.7096l0.93133 3.0771h2.9501l-4.5561-12.965zm0 7.5988 0.93133-3.003c0.04233-0.13493 0.10848-0.36247 0.20373-0.67997s0.19579-0.65353 0.29898-1.0107c0.10319-0.35719 0.18521-0.65617 0.24342-0.89694 0.05821 0.24342 0.13758 0.52917 0.23283 0.8546 0.09525 0.32544 0.19314 0.64823 0.29104 0.96309 0.0979 0.31485 0.17462 0.5715 0.23283 0.77258l0.93133 3.0057z"/>
   <path d="m84.264 115.58c0 0.39423 0.02381 0.79375 0.03704 1.1827l0.04762 1.1853c0.01588 0.39423 0.03175 0.79375 0.04233 1.1933h-0.06085l-5.5959-9.6838h-3.4555l-0.02117 12.92h2.4474v-6.0854c-0.01587-0.41275-0.0344-0.8255-0.05027-1.233s-0.0344-0.82021-0.05027-1.233c-0.01588-0.41275-0.03704-0.82285-0.06085-1.2277h0.07937l5.6039 9.7896h3.4819l0.02117-12.917h-2.4659z"/>
   <path d="m101.19 110.21a8.046 8.046 0 0 0-3.5243-0.7276h-4.0561l-0.02117 12.917h3.6592a8.9641 8.9641 0 0 0 3.81-0.73025 5.2758 5.2758 0 0 0 2.4183-2.196q0.83872-1.4605 0.84137-3.6433a6.8368 6.8368 0 0 0-0.81492-3.4872 5.2758 5.2758 0 0 0-2.3124-2.1325zm-0.6985 8.8635q-0.97896 1.0583-2.9845 1.0583h-1.1748v-8.4111h1.4579a4.1804 4.1804 0 0 1 2.0188 0.4445 2.831 2.831 0 0 1 1.2356 1.3679 5.7494 5.7494 0 0 1 0.4154 2.3548q0.0106 2.114-0.96837 3.1856z"/>
  </g>
  <polygon transform="matrix(.26458 0 0 .26458 -63.5 -96.574)" points="686.23 778.93 658.11 778.88 658.03 827.71 686.14 827.75 686.16 819.21 668.39 819.18 668.41 806.59 684.94 806.61 684.96 798.13 668.43 798.11 668.45 787.38 686.21 787.41"/>
  <path d="m131.96 110.26a8.0486 8.0486 0 0 0-3.5242-0.72496h-4.0561l-0.0238 12.909h3.6565a8.9641 8.9641 0 0 0 3.81-0.73289 5.2705 5.2705 0 0 0 2.4209-2.196q0.83872-1.4605 0.84137-3.6433a6.8104 6.8104 0 0 0-0.81756-3.4872 5.2573 5.2573 0 0 0-2.3072-2.1246zm-0.70114 8.8662q-0.97632 1.0583-2.9819 1.0583h-1.1774l0.0159-8.4111h1.4578a4.2492 4.2492 0 0 1 2.0188 0.4445 2.8258 2.8258 0 0 1 1.233 1.3679 5.715 5.715 0 0 1 0.4154 2.3548q-3e-3 2.1167-0.9816 3.1856z" stroke-width=".26458"/>
  <polygon transform="matrix(.26458 0 0 .26458 -63.5 -96.574)" points="835.93 819.46 816.12 819.42 816.19 779.15 805.84 779.13 805.76 827.95 835.91 828"/>
  <g stroke-width=".26458">
   <path d="m166.49 109.54-4.5799 12.965h2.9501l0.94192-3.0745h4.7096l0.94192 3.0983h2.9501l-4.5641-12.973zm0 7.5962 0.93133-3.0004c0.0423-0.13759 0.11112-0.36248 0.20637-0.67998 0.0952-0.3175 0.19315-0.65617 0.29634-1.0134 0.10318-0.35718 0.18521-0.65352 0.24606-0.89429 0.0582 0.24077 0.13494 0.52917 0.23283 0.85196 0.0979 0.32279 0.19315 0.64823 0.2884 0.96308 0.0952 0.31486 0.17462 0.57415 0.23283 0.77523l0.94192 3.0162z"/>
   <path d="m188.07 116.24a3.5428 3.5428 0 0 0-1.1642-0.45508v-0.09a2.2304 2.2304 0 0 0 1.0795-0.49213 2.4818 2.4818 0 0 0 0.67734-0.97102 3.5745 3.5745 0 0 0 0.23548-1.3229q0-1.8177-1.3229-2.5453-1.3229-0.7276-3.9052-0.73289h-4.019l-0.0212 12.917h4.8313a6.4982 6.4982 0 0 0 2.5321-0.44186 3.6036 3.6036 0 0 0 1.6431-1.2832 3.4713 3.4713 0 0 0 0.57679-2.0135 3.6036 3.6036 0 0 0-0.31221-1.6298 2.2781 2.2781 0 0 0-0.83079-0.93927zm-5.6806-4.3683h1.4393q1.1748 0 1.7171 0.32544a1.1377 1.1377 0 0 1 0.5424 1.0583 1.352 1.352 0 0 1-0.46037 1.1086c-0.30692 0.26459-0.8599 0.37571-1.6536 0.37307h-1.5875zm3.4925 7.9375q-0.48419 0.47625-1.7224 0.4736h-1.7859v-3.3655h1.6986a3.7544 3.7544 0 0 1 1.3732 0.20373 1.4076 1.4076 0 0 1 0.70909 0.56621 1.6563 1.6563 0 0 1 0.21166 0.84138 1.7066 1.7066 0 0 1-0.48418 1.2832z"/>
   <path d="m18.198 115.45c0 0.69056 0.07408 3.5295 0.05292 3.4978l-5.5562-9.607h-3.7571v7.8687c-0.034396 0.99483-0.23548 1.7251-0.635 2.1908s-1.0583 0.6985-1.9368 0.6985c-0.87842 0-1.5875-0.23283-1.9738-0.69585-0.38629-0.46302-0.59796-1.1853-0.48154-2.1749v-7.62h-2.9104v8.0036q0 2.1325 1.3758 3.3602 1.3758 1.2277 3.8629 1.2277a6.7813 6.7813 0 0 0 2.8575-0.55298 4.1063 4.1063 0 0 0 1.8521-1.5875 4.4979 4.4979 0 0 0 0.63765-2.413v-4.8789l5.5351 9.2604h3.4608v-12.7h-2.3812z"/>
  </g>
 </g>
</svg>
